# xmcd CD database file
#
# Track frame offsets:
#	150
#	32094
#	58853
#	98295
#	133371
#	162926
#	202821
#	240576
#	271282
#	298103
#
# Disc length: 4548 seconds
#
# Revision: 0
# Processed by: cddbd v1.5.2PL0 Copyright (c) Steve Scherf et al.
# Submitted via: CDex 1.51
#
DISCID=8b11c20a
DTITLE=ALBERT VILA QUINTET - FOREGROUND MUSIC
DYEAR=2006
DGENRE=Jazz
TTITLE0=BERENKLAUW
TTITLE1=GYM-JAM
TTITLE2=OLD BOY
TTITLE3=FRUIT MUSIC
TTITLE4=ZONG
TTITLE5=ONLINE
TTITLE6=THE BEAN
TTITLE7=Y TU?
TTITLE8=MR LATE
TTITLE9=HUNDRED YEARS OF SOLITUDE
EXTD=YEAR: 2006
EXTT0=
EXTT1=
EXTT2=
EXTT3=
EXTT4=
EXTT5=
EXTT6=
EXTT7=
EXTT8=
EXTT9=
PLAYORDER=
